<?xml version="1.0" encoding="utf-8"?>
<!-- Generator: Adobe Illustrator 28.4.1, SVG Export Plug-In . SVG Version: 6.00 Build 0)  -->
<svg version="1.1" id="Layer_1" xmlns="http://www.w3.org/2000/svg" xmlns:xlink="http://www.w3.org/1999/xlink" x="0px" y="0px"
	 viewBox="0 0 131.87 127.49" style="enable-background:new 0 0 131.87 127.49;" xml:space="preserve">
<style type="text/css">
	.st0{fill:url(#SVGID_1_);}
	.st1{fill:url(#SVGID_00000055664556244623472860000008323271945036978335_);}
	.st2{fill:url(#SVGID_00000138567756252728856640000006694806589455096988_);}
	.st3{fill:url(#SVGID_00000113353205310387683920000013332569267452891546_);}
	.st4{fill:url(#SVGID_00000103986112126147290990000013112865955879176087_);}
	.st5{fill:url(#SVGID_00000068660839976156165780000010173687327016008887_);}
	.st6{fill:url(#SVGID_00000122686372092235450630000001028611302900897925_);}
	.st7{fill:url(#SVGID_00000118391416567372279810000002086377092821248144_);}
	.st8{fill:#5827FF;}
</style>
<g>
	<g>
		
			<linearGradient id="SVGID_1_" gradientUnits="userSpaceOnUse" x1="179.8087" y1="133.7293" x2="11.8042" y2="63.8703" gradientTransform="matrix(1 0 0 -1 0 128.3937)">
			<stop  offset="0" style="stop-color:#EB00FF"/>
			<stop  offset="1" style="stop-color:#4611F5"/>
		</linearGradient>
		<path class="st0" d="M59.96,55.72l-4.85,1.53L49,37.79l4.84-1.51c5.38-1.69,11.1,1.3,12.79,6.68
			C68.3,48.3,65.31,54.05,59.96,55.72z"/>
		
			<linearGradient id="SVGID_00000101784099125696035060000016898274297034878340_" gradientUnits="userSpaceOnUse" x1="191.8116" y1="104.8598" x2="23.8085" y2="35.0014" gradientTransform="matrix(1 0 0 -1 0 128.3937)">
			<stop  offset="0" style="stop-color:#EB00FF"/>
			<stop  offset="1" style="stop-color:#4611F5"/>
		</linearGradient>
		<path style="fill:url(#SVGID_00000101784099125696035060000016898274297034878340_);" d="M117.52,57.31c1.3-3,1.56-6.46,0.5-9.83
			L106.21,9.86c-2.33-7.41-10.22-11.54-17.63-9.21L9.86,25.35C2.42,27.68-1.68,35.6,0.65,43.01l11.81,37.62
			c1.05,3.36,3.3,6.01,6.1,7.73v23.73c0,8.49,6.91,15.4,15.4,15.4h82.51c8.49,0,15.4-6.91,15.4-15.4V72.66
			C131.87,64.52,125.52,57.85,117.52,57.31z M38.46,54.55l-1.59-0.92l-1.64,0.87l0.37-1.8l-1.35-1.27l1.85-0.21l0.8-1.67l0.77,1.67
			l1.82,0.26l-1.35,1.25L38.46,54.55z M82.68,51.24l-0.61,1.75l-0.96-1.59l-1.85-0.05l1.24-1.38l-0.52-1.8l1.69,0.74l1.54-1.03
			l-0.19,1.83l1.48,1.14L82.68,51.24z M80.53,37.26l0.8-1.66l0.76,1.66l1.83,0.27l-1.35,1.24l0.32,1.83l-1.62-0.93l-1.61,0.9
			l0.37-1.82l-1.35-1.27L80.53,37.26z M73.54,25.88l1.51,1.08l1.72-0.71l-0.55,1.77l1.19,1.41l-1.86,0.02l-0.95,1.59l-0.61-1.77
			l-1.8-0.43l1.51-1.11L73.54,25.88z M63.82,21.54l1.12-1.46l0.39,1.8l1.75,0.64l-1.59,0.92l-0.05,1.86l-1.38-1.22l-1.8,0.53
			l0.74-1.7l-1.03-1.53L63.82,21.54z M51.35,22.49l0.27-1.85l1.24,1.37l1.83-0.34l-0.93,1.61l0.9,1.65l-1.82-0.38l-1.27,1.36
			l-0.22-1.86l-1.66-0.79L51.35,22.49z M53.13,34.01c6.62-2.07,13.69,1.61,15.78,8.23c1.87,5.99-1,12.31-6.46,15.02h-9.84
			l-6.6-21.03L53.13,34.01z M41,28.42l0.45-1.8l1.09,1.48l1.85-0.13l-1.06,1.51l0.69,1.69l-1.77-0.55l-1.41,1.22v-1.86L39.25,29
			L41,28.42z M34.54,38.06l1.7,0.74l1.5-1.06l-0.15,1.85l1.45,1.14l-1.8,0.4l-0.63,1.75l-0.93-1.62l-1.85-0.05l1.21-1.38
			L34.54,38.06z M129.22,112.09c0,7.03-5.72,12.75-12.75,12.75H33.96c-7.03,0-12.75-5.72-12.75-12.75V72.66
			c0-7.03,5.72-12.76,12.75-12.76h82.51c7.03,0,12.75,5.73,12.75,12.76V112.09z"/>
		
			<linearGradient id="SVGID_00000026151058642181367880000006372246260764655258_" gradientUnits="userSpaceOnUse" x1="186.4342" y1="117.7899" x2="18.4342" y2="47.9328" gradientTransform="matrix(1 0 0 -1 0 128.3937)">
			<stop  offset="0" style="stop-color:#EB00FF"/>
			<stop  offset="1" style="stop-color:#4611F5"/>
		</linearGradient>
		<path style="fill:url(#SVGID_00000026151058642181367880000006372246260764655258_);" d="M42.75,76.49
			c7.08,0,12.82-2.75,12.82-6.14s-5.74-6.14-12.82-6.14s-12.82,2.75-12.82,6.14S35.67,76.49,42.75,76.49z"/>
		
			<linearGradient id="SVGID_00000103261801652979189990000008350575996128117660_" gradientUnits="userSpaceOnUse" x1="197.0854" y1="92.1836" x2="29.0851" y2="22.3263" gradientTransform="matrix(1 0 0 -1 0 128.3937)">
			<stop  offset="0" style="stop-color:#EB00FF"/>
			<stop  offset="1" style="stop-color:#4611F5"/>
		</linearGradient>
		<path style="fill:url(#SVGID_00000103261801652979189990000008350575996128117660_);" d="M48.87,80.36H37.93
			c-5.69,0-10.32,4.63-10.32,10.32v18.87c0,5.69,4.63,10.32,10.32,10.32h10.94c5.69,0,10.32-4.63,10.32-10.32V90.68
			C59.19,84.99,54.56,80.36,48.87,80.36z M48.87,117.22H37.93c-1.88,0-3.58-0.7-4.91-1.82c1.28-4.69,5.46-7.93,10.37-7.93
			c4.93,0,9.13,3.24,10.4,7.91C52.46,116.51,50.75,117.22,48.87,117.22z M37.64,96.49c0-3.18,2.58-5.76,5.76-5.76
			c3.17,0,5.76,2.58,5.76,5.76c0,3.17-2.59,5.75-5.76,5.75C40.22,102.24,37.64,99.66,37.64,96.49z M56.54,109.55
			c0,1.21-0.3,2.33-0.8,3.34c-2.04-4.73-6.65-7.89-11.98-8.04c4.46-0.19,8.04-3.85,8.04-8.36c0-4.64-3.77-8.41-8.4-8.41
			c-4.64,0-8.41,3.77-8.41,8.41c0,4.5,3.58,8.17,8.04,8.36c-5.32,0.14-9.92,3.31-11.96,8.07c-0.51-1.02-0.81-2.15-0.81-3.37V90.68
			c0-4.23,3.44-7.67,7.67-7.67h10.94c4.23,0,7.67,3.44,7.67,7.67V109.55z"/>
		
			<linearGradient id="SVGID_00000076571340467051890180000015349408493292391089_" gradientUnits="userSpaceOnUse" x1="197.0726" y1="92.2056" x2="29.0725" y2="22.3485" gradientTransform="matrix(1 0 0 -1 0 128.3937)">
			<stop  offset="0" style="stop-color:#EB00FF"/>
			<stop  offset="1" style="stop-color:#4611F5"/>
		</linearGradient>
		<path style="fill:url(#SVGID_00000076571340467051890180000015349408493292391089_);" d="M68.19,85.38H95.7
			c0.73,0,1.32-0.59,1.32-1.32s-0.59-1.32-1.32-1.32H68.19c-0.73,0-1.32,0.59-1.32,1.32S67.46,85.38,68.19,85.38z"/>
		
			<linearGradient id="SVGID_00000163764449844146367290000009346794935860775839_" gradientUnits="userSpaceOnUse" x1="202.3355" y1="79.5489" x2="34.3355" y2="9.6917" gradientTransform="matrix(1 0 0 -1 0 128.3937)">
			<stop  offset="0" style="stop-color:#EB00FF"/>
			<stop  offset="1" style="stop-color:#4611F5"/>
		</linearGradient>
		<path style="fill:url(#SVGID_00000163764449844146367290000009346794935860775839_);" d="M115.84,93.4H68.19
			c-0.73,0-1.32,0.59-1.32,1.32s0.59,1.32,1.32,1.32h47.64c0.73,0,1.32-0.59,1.32-1.32S116.57,93.4,115.84,93.4z"/>
		
			<linearGradient id="SVGID_00000134972173869368427810000017214759665386433947_" gradientUnits="userSpaceOnUse" x1="206.1182" y1="70.4517" x2="38.1182" y2="0.5946" gradientTransform="matrix(1 0 0 -1 0 128.3937)">
			<stop  offset="0" style="stop-color:#EB00FF"/>
			<stop  offset="1" style="stop-color:#4611F5"/>
		</linearGradient>
		<path style="fill:url(#SVGID_00000134972173869368427810000017214759665386433947_);" d="M115.84,104.07H68.19
			c-0.73,0-1.32,0.59-1.32,1.32s0.59,1.32,1.32,1.32h47.64c0.73,0,1.32-0.59,1.32-1.32S116.57,104.07,115.84,104.07z"/>
		
			<linearGradient id="SVGID_00000083786839589780307010000006623397153771348392_" gradientUnits="userSpaceOnUse" x1="209.9009" y1="61.3546" x2="41.9009" y2="-8.5025" gradientTransform="matrix(1 0 0 -1 0 128.3937)">
			<stop  offset="0" style="stop-color:#EB00FF"/>
			<stop  offset="1" style="stop-color:#4611F5"/>
		</linearGradient>
		<path style="fill:url(#SVGID_00000083786839589780307010000006623397153771348392_);" d="M115.84,114.74H68.19
			c-0.73,0-1.32,0.59-1.32,1.32s0.59,1.32,1.32,1.32h47.64c0.73,0,1.32-0.59,1.32-1.32C117.16,115.33,116.57,114.74,115.84,114.74z"
			/>
	</g>
	<path class="st8" d="M118.02,47.48L106.21,9.86c-2.33-7.41-10.22-11.54-17.63-9.21L9.86,25.35C2.42,27.68-1.68,35.6,0.65,43.01
		l11.81,37.62c1.05,3.36,3.3,6.01,6.1,7.73l-0.07-15.82c-0.03-8.4,6.77-15.23,15.17-15.23h83.86
		C118.82,54.31,119.08,50.85,118.02,47.48z M63.82,21.54l1.12-1.46l0.39,1.8l1.75,0.64l-1.59,0.92l-0.05,1.86l-1.38-1.22l-1.8,0.53
		l0.74-1.7l-1.03-1.53L63.82,21.54z M51.35,22.49l0.27-1.85l1.24,1.37l1.83-0.34l-0.93,1.61l0.9,1.65l-1.82-0.38l-1.27,1.36
		l-0.22-1.86l-1.66-0.79L51.35,22.49z M34.54,38.06l1.7,0.74l1.5-1.06l-0.15,1.85l1.45,1.14l-1.8,0.4l-0.63,1.75l-0.93-1.62
		l-1.85-0.05l1.21-1.38L34.54,38.06z M38.46,54.55l-1.59-0.92l-1.64,0.87l0.37-1.8l-1.35-1.27l1.85-0.21l0.8-1.67l0.77,1.67
		l1.82,0.26l-1.35,1.25L38.46,54.55z M44.02,31.17l-1.77-0.55l-1.41,1.22v-1.86L39.25,29L41,28.42l0.45-1.8l1.09,1.48l1.85-0.13
		l-1.06,1.51L44.02,31.17z M62.45,57.26h-9.84l-6.6-21.03l7.12-2.22c6.62-2.07,13.69,1.61,15.78,8.23
		C70.78,48.23,67.91,54.55,62.45,57.26z M75.55,29.45l-0.95,1.59l-0.61-1.77l-1.8-0.43l1.51-1.11l-0.16-1.85l1.51,1.08l1.72-0.71
		l-0.55,1.77l1.19,1.41L75.55,29.45z M80.53,37.26l0.8-1.66l0.76,1.66l1.83,0.27l-1.35,1.24l0.32,1.83l-1.62-0.93l-1.61,0.9
		l0.37-1.82l-1.35-1.27L80.53,37.26z M82.68,51.24l-0.61,1.75l-0.96-1.59l-1.85-0.05l1.24-1.38l-0.52-1.8l1.69,0.74l1.54-1.03
		l-0.19,1.83l1.48,1.14L82.68,51.24z M53.84,36.28L49,37.79l6.11,19.46l4.85-1.53c5.35-1.67,8.34-7.42,6.67-12.76
		C64.94,37.58,59.22,34.59,53.84,36.28z"/>
</g>
</svg>
