<?xml version="1.0" encoding="utf-8"?>
<!-- Generator: Adobe Illustrator 28.4.1, SVG Export Plug-In . SVG Version: 6.00 Build 0)  -->
<svg version="1.1" id="Layer_1" xmlns="http://www.w3.org/2000/svg" xmlns:xlink="http://www.w3.org/1999/xlink" x="0px" y="0px"
	 viewBox="0 0 183.91 101.14" style="enable-background:new 0 0 183.91 101.14;" xml:space="preserve">
<style type="text/css">
	.st0{fill:url(#SVGID_1_);}
	.st1{fill:url(#SVGID_00000107584745492706515790000000677539613294625670_);}
</style>
<g>
	
		<linearGradient id="SVGID_1_" gradientUnits="userSpaceOnUse" x1="191.3694" y1="95.2592" x2="29.3694" y2="28.4022" gradientTransform="matrix(1 0 0 -1 0 102.3937)">
		<stop  offset="0" style="stop-color:#EB00FF"/>
		<stop  offset="1" style="stop-color:#4611F5"/>
	</linearGradient>
	<path class="st0" d="M25.58,49.97C11.48,49.97,0,61.44,0,75.55s11.48,25.59,25.58,25.59c14.11,0,25.59-11.48,25.59-25.59
		S39.69,49.97,25.58,49.97z M25.58,90.27c-8.11,0-14.72-6.6-14.72-14.72c0-8.11,6.61-14.72,14.72-14.72
		c8.12,0,14.73,6.61,14.73,14.72C40.31,83.67,33.7,90.27,25.58,90.27z"/>
	
		<linearGradient id="SVGID_00000110439559897538177890000014739754606611302536_" gradientUnits="userSpaceOnUse" x1="197.5577" y1="80.2644" x2="35.5577" y2="13.4073" gradientTransform="matrix(1 0 0 -1 0 102.3937)">
		<stop  offset="0" style="stop-color:#EB00FF"/>
		<stop  offset="1" style="stop-color:#4611F5"/>
	</linearGradient>
	<path style="fill:url(#SVGID_00000110439559897538177890000014739754606611302536_);" d="M158.33,49.97
		c-5.89,0-11.3,2.01-15.63,5.37l-8.94-10.84l5.04-4.15l-4.47-5.42c0.45,0.05,0.89,0.1,1.35,0.1h6.88V13.18h-6.88
		c-5.78,0-10.49,4.53-10.85,10.22l-4.57-5.54l-4.88,4.03l-3.6-16.95C111.17,2.08,108.6,0,105.67,0H94.15c-0.72,0-1.3,0.58-1.3,1.29
		c0,0.72,0.58,1.3,1.3,1.3h11.52c1.71,0,3.22,1.21,3.57,2.89l3.89,18.27l-3.89,3.2c-4.24-1.81-9.31-2.87-14.76-2.87
		c-14.13,0-25.72,7.11-26.77,16.09c-3.52-0.17-14.6-1.5-22.03-11.23c-0.46-0.61-1.16-1-1.91-1.07c-0.75-0.08-1.46,0.16-2.02,0.65
		c-1.34,1.19-5.23,4.7-6.52,11.82c-3.11-0.85-6.34-1.32-9.65-1.32c-8.2,0-16.24,2.79-22.65,7.88c-0.56,0.44-0.65,1.25-0.21,1.81
		c0.45,0.56,1.26,0.66,1.82,0.21c6.04-4.78,13.31-7.31,21.04-7.31c8.98,0,17.44,3.47,23.83,9.77c6.53,6.42,10.13,15,10.13,24.17
		c0,3.24-0.46,6.44-1.36,9.49c-0.02,0.06-0.01,0.12-0.02,0.18c0,0.06-0.03,0.12-0.03,0.18c0,0.03,0.01,0.05,0.01,0.08
		c0.01,0.09,0.03,0.17,0.05,0.26c0.03,0.07,0.04,0.15,0.08,0.22c0.03,0.08,0.08,0.14,0.13,0.2c0.05,0.07,0.1,0.14,0.16,0.2
		c0.06,0.05,0.12,0.08,0.19,0.12c0.08,0.05,0.15,0.1,0.24,0.13c0.03,0.01,0.04,0.03,0.07,0.04c0.12,0.03,0.24,0.05,0.36,0.05h45.04
		l12.03-35.19c2.35-2.15,3.89-4.59,4.53-7.19l5.24,6.36l5.51-4.54l8.96,10.88c-4.91,4.67-7.99,11.24-7.99,18.53
		c0,14.11,11.48,25.59,25.59,25.59c14.1,0,25.58-11.48,25.58-25.59S172.43,49.97,158.33,49.97z M135.68,15.76h4.29v16.68h-4.29
		c-1.62,0-3.17-0.47-4.5-1.33l-3.24-3.93c-0.39-0.98-0.6-2.02-0.6-3.08C127.34,19.5,131.08,15.76,135.68,15.76z M37.71,41.12
		c1.08-6.46,4.57-9.6,5.91-10.61c8.23,10.77,20.19,12.12,24.06,12.27c0.25,2.23,1.14,4.39,2.63,6.39h-19.5
		C47.01,45.53,42.55,42.82,37.71,41.12z M53.27,51.75h38.8l-2.81,7.54H58.28C56.94,56.6,55.27,54.07,53.27,51.75z M94.61,51.75h8.52
		l-7,18.81h-8.31l6.76-18.12C94.66,52.21,94.66,51.98,94.61,51.75z M61.09,84.11c0.67-2.78,1.03-5.65,1.03-8.56
		c0-4.77-0.92-9.39-2.65-13.68H88.3l-3.24,8.69H78.4l-5.07,13.55C73.33,84.11,61.09,84.11,61.09,84.11z M102.61,84.11H76.09
		l4.11-10.96h26.16L102.61,84.11z M107.24,70.56h-8.35l6.75-18.12c0.09-0.23,0.08-0.46,0.04-0.69h7.99L107.24,70.56z M115.15,49.17
		H73.78c-2.33-2.33-3.59-4.97-3.59-7.67c0-8.18,10.9-14.84,24.29-14.84s24.29,6.66,24.29,14.84
		C118.77,44.23,117.49,46.85,115.15,49.17z M126.61,47.04l-5.32-6.45c-0.4-4.96-3.99-9.38-9.49-12.39l8.11-6.69L135.15,40
		L126.61,47.04z M158.33,90.27c-8.12,0-14.73-6.6-14.73-14.72c0-8.11,6.61-14.72,14.73-14.72c8.11,0,14.72,6.61,14.72,14.72
		C173.05,83.67,166.44,90.27,158.33,90.27z"/>
</g>
</svg>
