<?xml version="1.0" encoding="utf-8"?>
<!-- Generator: Adobe Illustrator 28.4.1, SVG Export Plug-In . SVG Version: 6.00 Build 0)  -->
<svg version="1.1" id="Layer_1" xmlns="http://www.w3.org/2000/svg" xmlns:xlink="http://www.w3.org/1999/xlink" x="0px" y="0px"
	 viewBox="0 0 257.16 84.64" style="enable-background:new 0 0 257.16 84.64;" xml:space="preserve">
<style type="text/css">
	.st0{fill:url(#SVGID_1_);}
	.st1{fill:url(#SVGID_00000108292132863834273670000012013143721183723964_);}
	.st2{fill:url(#SVGID_00000041263974542541771980000012677186234746247583_);}
	.st3{fill:url(#SVGID_00000173141649076509230130000013061346160038452633_);}
	.st4{fill:url(#SVGID_00000004536342943222702860000012398880722870065331_);}
	.st5{fill:url(#SVGID_00000072260187657147557190000016641569861066917018_);}
	.st6{fill:url(#SVGID_00000004507805104027539810000008834464897308245923_);}
</style>
<g>
	
		<linearGradient id="SVGID_1_" gradientUnits="userSpaceOnUse" x1="257.1842" y1="11.9263" x2="60.0414" y2="45.3549" gradientTransform="matrix(1 0 0 -1 0 86.3937)">
		<stop  offset="0" style="stop-color:#EB00FF"/>
		<stop  offset="1" style="stop-color:#4611F5"/>
	</linearGradient>
	<path class="st0" d="M215.77,50.25c-9.48,0-17.19,7.72-17.19,17.2c0,9.47,7.71,17.19,17.19,17.19s17.19-7.72,17.19-17.19
		C232.96,57.97,225.25,50.25,215.77,50.25z M215.77,74.67c-3.98,0-7.22-3.24-7.22-7.22c0-3.99,3.24-7.23,7.22-7.23
		s7.22,3.24,7.22,7.23C222.99,71.43,219.75,74.67,215.77,74.67z"/>
	
		<linearGradient id="SVGID_00000161624728648849250500000017993300722525602988_" gradientUnits="userSpaceOnUse" x1="252.4413" y1="-16.0447" x2="55.2985" y2="17.3839" gradientTransform="matrix(1 0 0 -1 0 86.3937)">
		<stop  offset="0" style="stop-color:#EB00FF"/>
		<stop  offset="1" style="stop-color:#4611F5"/>
	</linearGradient>
	<path style="fill:url(#SVGID_00000161624728648849250500000017993300722525602988_);" d="M46.07,50.25
		c-9.48,0-17.19,7.72-17.19,17.2c0,9.47,7.71,17.19,17.19,17.19s17.19-7.72,17.19-17.19C63.26,57.97,55.55,50.25,46.07,50.25z
		 M46.07,74.67c-3.98,0-7.22-3.24-7.22-7.22c0-3.99,3.24-7.23,7.22-7.23s7.22,3.24,7.22,7.23C53.29,71.43,50.05,74.67,46.07,74.67z"
		/>
	
		<linearGradient id="SVGID_00000078743715985350938510000009267783237734757045_" gradientUnits="userSpaceOnUse" x1="258.1571" y1="17.6635" x2="61.0142" y2="51.0922" gradientTransform="matrix(1 0 0 -1 0 86.3937)">
		<stop  offset="0" style="stop-color:#EB00FF"/>
		<stop  offset="1" style="stop-color:#4611F5"/>
	</linearGradient>
	<path style="fill:url(#SVGID_00000078743715985350938510000009267783237734757045_);" d="M257.08,65.29
		c0.07-3.47-0.15-7.59-1.03-11.68c0-0.05-0.02-0.1-0.03-0.15c-1.57-7.16-5.2-14.17-13.08-17.29c-16.74-6.62-48.43-10.11-52.59-10.55
		c-1.59-1.35-8.5-7.1-17.68-12.6c-7.71-4.61-17.02-9.05-26.11-10.54c-10.85-1.78-24.59-3.04-40.03-2.23
		C90.91,1.07,73.56,4.02,55.68,10.68c-4.28,1.59-8.29,3.33-11.84,4.86c-3.69,1.6-7.18,3.11-10.33,4.19
		c-19.09,6.56-27.66,7.55-27.74,7.56l-1,0.11l-0.14,0.99C4.62,28.46,3.7,34.84,2.3,40.61c-1.59,6.52-3.19,19.27-1.73,27.2l0.08,0.44
		l0.34,0.3c0.26,0.23,6.55,5.64,22.21,7.59l2.02,0.25l-0.62-1.93c-0.73-2.25-1.11-4.61-1.11-7.02c0-12.61,10.26-22.86,22.87-22.86
		s22.87,10.25,22.87,22.86c0,3.15-0.63,6.21-1.87,9.08l-0.79,1.81h128.99l-0.78-1.81c-1.25-2.87-1.88-5.93-1.88-9.08
		c0-12.61,10.26-22.86,22.87-22.86s22.87,10.25,22.87,22.86c0,3.15-0.63,6.21-1.88,9.08l-0.64,1.81h1.97c8.36,0,17.57-1.5,18.2-4.29
		c0,0,0,0,0-0.01c0.05-0.21,0.61-3.37,0.76-7.82c0.07-0.16,0.11-0.33,0.11-0.52C257.16,65.55,257.12,65.42,257.08,65.29z
		 M247.92,66.99h6.49c-0.15,3.21-0.49,5.6-0.61,6.28c-0.86,0.67-5.34,2.25-13.96,2.45c0.92-2.66,1.38-5.43,1.38-8.28
		c0-14.03-11.41-25.45-25.45-25.45s-25.46,11.42-25.46,25.45c0,2.86,0.46,5.64,1.39,8.3H70.43c0.93-2.66,1.39-5.44,1.39-8.3
		c0-14.03-11.42-25.45-25.46-25.45S20.91,53.41,20.91,67.44c0,1.99,0.23,3.96,0.68,5.87c-11.52-1.74-17.18-5.43-18.56-6.45
		c-0.68-4.17-0.49-9.75,0.05-14.93h12.53c0.72,0,1.3-0.58,1.3-1.29c0-0.72-0.58-1.3-1.3-1.3H3.38c0.27-2.13,0.6-4.12,0.94-5.84
		c3.02-0.35,9.4-1.4,10.81-4.2c0.47-0.93,0.4-1.97-0.19-2.94c-2.07-3.4-6.08-5.29-7.99-6.03c0.03-0.21,0.07-0.43,0.1-0.61
		c2.77-0.43,11.36-2.07,27.3-7.54c3.24-1.12,6.78-2.64,10.52-4.26c3.69-1.6,7.5-3.25,11.71-4.81c17.68-6.59,34.86-9.49,50.29-10.28
		c15.14-0.78,28.61,0.46,39.27,2.2c9.16,1.5,18.75,6.27,26.52,11.06c9.42,5.81,16.18,11.65,16.3,11.76l0.31,0.27l0.41,0.04
		c0.35,0.03,35.09,3.6,52.31,10.42c1.7,0.67,3.13,1.6,4.41,2.66h-6.88c-0.7,0-1.33,0.39-1.64,1.02s-0.24,1.36,0.18,1.92
		c1.97,2.59,7.35,8.63,15.56,10.64c0.65,3.33,0.85,6.65,0.84,9.58h-6.54c-0.71,0-1.29,0.58-1.29,1.29
		C246.63,66.41,247.21,66.99,247.92,66.99z"/>
	
		<linearGradient id="SVGID_00000068654425791444185830000003847364516846830231_" gradientUnits="userSpaceOnUse" x1="261.6755" y1="38.4132" x2="64.5326" y2="71.8418" gradientTransform="matrix(1 0 0 -1 0 86.3937)">
		<stop  offset="0" style="stop-color:#EB00FF"/>
		<stop  offset="1" style="stop-color:#4611F5"/>
	</linearGradient>
	<path style="fill:url(#SVGID_00000068654425791444185830000003847364516846830231_);" d="M118.62,29.67H55.48v-1.29
		c0-0.23,0.08-0.44,0.19-0.63c0.01-0.03,0-0.07,0.02-0.11c0.88-1.96,9.46-18.42,51.58-20.71c2.48-0.13,5.08-0.22,7.8-0.25l1.19-0.01
		L118.62,29.67z"/>
	
		<linearGradient id="SVGID_00000172439539854804983880000004605474237325022899_" gradientUnits="userSpaceOnUse" x1="262.873" y1="45.4754" x2="65.7301" y2="78.9039" gradientTransform="matrix(1 0 0 -1 0 86.3937)">
		<stop  offset="0" style="stop-color:#EB00FF"/>
		<stop  offset="1" style="stop-color:#4611F5"/>
	</linearGradient>
	<path style="fill:url(#SVGID_00000172439539854804983880000004605474237325022899_);" d="M184.71,29.67h-59.57l-6.37-22.99h1.7
		c0.82,0,1.64,0.01,2.44,0.02c0.81,0.01,1.6,0.03,2.38,0.06c0.79,0.02,1.56,0.05,2.33,0.09c0.44,0.02,0.88,0.04,1.31,0.07
		c0.54,0.03,1.08,0.06,1.62,0.1c0.64,0.04,1.27,0.09,1.89,0.14c1.07,0.09,2.12,0.19,3.14,0.3c1.38,0.14,2.71,0.31,4.02,0.5
		c0.57,0.08,1.13,0.16,1.69,0.25c0.56,0.08,1.11,0.17,1.65,0.27c2.17,0.37,4.24,0.79,6.22,1.25c0.49,0.11,0.98,0.23,1.46,0.35
		c1.51,0.37,2.96,0.77,4.35,1.19c0.82,0.25,1.62,0.5,2.39,0.76c0.42,0.13,0.83,0.28,1.24,0.42c0.28,0.1,0.56,0.2,0.84,0.3
		c0.57,0.2,1.14,0.41,1.69,0.63c0.72,0.27,1.41,0.55,2.09,0.84c2.89,1.21,5.42,2.48,7.61,3.73c0.61,0.36,1.2,0.7,1.76,1.05
		c0.21,0.13,0.42,0.26,0.62,0.39c0.72,0.45,1.39,0.89,2.01,1.33c0.2,0.14,0.4,0.27,0.59,0.41c0.63,0.45,1.22,0.89,1.76,1.32
		c0.17,0.13,0.34,0.27,0.5,0.4c0.17,0.13,0.33,0.27,0.49,0.4c2.4,1.99,3.74,3.53,4.22,4.11c0.05,0.07,0.09,0.12,0.12,0.16
		C183.1,27.71,183.84,28.44,184.71,29.67z"/>
	
		<linearGradient id="SVGID_00000041995364784046730260000011238963686254133147_" gradientUnits="userSpaceOnUse" x1="259.7032" y1="26.782" x2="62.5604" y2="60.2106" gradientTransform="matrix(1 0 0 -1 0 86.3937)">
		<stop  offset="0" style="stop-color:#EB00FF"/>
		<stop  offset="1" style="stop-color:#4611F5"/>
	</linearGradient>
	<path style="fill:url(#SVGID_00000041995364784046730260000011238963686254133147_);" d="M148.25,39.45c0,0.72-0.58,1.3-1.29,1.3
		H134.7c-0.36,0-0.68-0.15-0.91-0.38c-0.06-0.06-0.11-0.12-0.16-0.19c-0.14-0.21-0.22-0.46-0.22-0.73s0.08-0.51,0.22-0.72
		c0.05-0.07,0.1-0.13,0.16-0.19c0.23-0.24,0.55-0.38,0.91-0.38h12.26C147.67,38.16,148.25,38.74,148.25,39.45z"/>
	
		<linearGradient id="SVGID_00000067222221093068578960000011615055596153690508_" gradientUnits="userSpaceOnUse" x1="258.0981" y1="17.3157" x2="60.9552" y2="50.7443" gradientTransform="matrix(1 0 0 -1 0 86.3937)">
		<stop  offset="0" style="stop-color:#EB00FF"/>
		<stop  offset="1" style="stop-color:#4611F5"/>
	</linearGradient>
	<path style="fill:url(#SVGID_00000067222221093068578960000011615055596153690508_);" d="M90.82,39.45c0,0.72-0.58,1.3-1.29,1.3
		H77.27c-0.72,0-1.3-0.58-1.3-1.3c0-0.71,0.58-1.29,1.3-1.29h12.26C90.24,38.16,90.82,38.74,90.82,39.45z"/>
</g>
</svg>
