<svg xmlns="http://www.w3.org/2000/svg" viewBox="0 0 256 256" focusable="false" color="rgb(45, 55, 72)" style="user-select: none; width: 100%; height: 100%; display: inline-block; fill: rgb(45, 55, 72); color: rgb(45, 55, 72); flex-shrink: 0;"><g color="rgb(45, 55, 72)" weight="bold"><path d="M172.29,68.9A84,84,0,0,0,12,104v64a20,20,0,0,0,20,20H84.1A84.18,84.18,0,0,0,160,236h64a20,20,0,0,0,20-20V152A84,84,0,0,0,172.29,68.9ZM36,104a60,60,0,1,1,60,60H36ZM220,212H160a60.14,60.14,0,0,1-49-25.37,83.93,83.93,0,0,0,68.55-91.37A60,60,0,0,1,220,152Z"></path></g></svg>