<svg xmlns="http://www.w3.org/2000/svg" viewBox="0 0 256 256" focusable="false" color="var(--token-1d6b3bc2-09cd-4ad4-9b2c-36a4aeed34f1, rgb(0, 0, 0))" style="user-select: none; width: 100%; height: 100%; display: inline-block; fill: var(--token-1d6b3bc2-09cd-4ad4-9b2c-36a4aeed34f1, rgb(0, 0, 0)); color: var(--token-1d6b3bc2-09cd-4ad4-9b2c-36a4aeed34f1, rgb(0, 0, 0)); flex-shrink: 0;"><g color="var(--token-1d6b3bc2-09cd-4ad4-9b2c-36a4aeed34f1, rgb(0, 0, 0))" weight="regular"><path d="M128,24A104,104,0,1,0,232,128,104.11,104.11,0,0,0,128,24Zm0,192a88,88,0,1,1,88-88A88.1,88.1,0,0,1,128,216Zm48-88a8,8,0,0,1-8,8H136v32a8,8,0,0,1-16,0V136H88a8,8,0,0,1,0-16h32V88a8,8,0,0,1,16,0v32h32A8,8,0,0,1,176,128Z"></path></g></svg>