<svg xmlns="http://www.w3.org/2000/svg" viewBox="0 0 256 256" focusable="false" color="var(--token-992af2c7-ec5c-4d38-a399-51876ab56652, rgb(26, 32, 44))" style="user-select: none; width: 100%; height: 100%; display: inline-block; fill: var(--token-992af2c7-ec5c-4d38-a399-51876ab56652, rgb(26, 32, 44)); color: var(--token-992af2c7-ec5c-4d38-a399-51876ab56652, rgb(26, 32, 44)); flex-shrink: 0;"><g color="var(--token-992af2c7-ec5c-4d38-a399-51876ab56652, rgb(26, 32, 44))" weight="bold"><path d="M228,144v64a12,12,0,0,1-12,12H40a12,12,0,0,1-12-12V144a12,12,0,0,1,24,0v52H204V144a12,12,0,0,1,24,0Zm-108.49,8.49a12,12,0,0,0,17,0l40-40a12,12,0,0,0-17-17L140,115V32a12,12,0,0,0-24,0v83L96.49,95.51a12,12,0,0,0-17,17Z"></path></g></svg>