<svg xmlns="http://www.w3.org/2000/svg" viewBox="0 0 256 256" focusable="false" color="var(--token-1d6b3bc2-09cd-4ad4-9b2c-36a4aeed34f1, rgb(0, 0, 0))" style="user-select: none; width: 100%; height: 100%; display: inline-block; fill: var(--token-1d6b3bc2-09cd-4ad4-9b2c-36a4aeed34f1, rgb(0, 0, 0)); color: var(--token-1d6b3bc2-09cd-4ad4-9b2c-36a4aeed34f1, rgb(0, 0, 0)); flex-shrink: 0;"><g color="var(--token-1d6b3bc2-09cd-4ad4-9b2c-36a4aeed34f1, rgb(0, 0, 0))" weight="regular"><path d="M230.92,212c-15.23-26.33-38.7-45.21-66.09-54.16a72,72,0,1,0-73.66,0C63.78,166.78,40.31,185.66,25.08,212a8,8,0,1,0,13.85,8c18.84-32.56,52.14-52,89.07-52s70.23,19.44,89.07,52a8,8,0,1,0,13.85-8ZM72,96a56,56,0,1,1,56,56A56.06,56.06,0,0,1,72,96Z"></path></g></svg>