<svg xmlns="http://www.w3.org/2000/svg" width="1200" height="800" fill="none"><g clip-path="url(#a)"><path fill="#F8FAFC" d="M0 0h1200v800H0z"/><g filter="url(#b)"><path fill="#CD3D3D" d="M959 400c0 102.173-158.102 241-278.5 241s-218-82.827-218-185S620.602 215 741 215s218 82.827 218 185Z"/></g><g filter="url(#c)"><path fill="#1EF5FF" d="M947.5 758.5c0 74.006-122.597 173-214 173s-281-123.494-281-197.5 122.597-173 214-173 281 123.494 281 197.5Z"/></g><g filter="url(#d)"><path fill="orange" d="M931 113.5c0 74.558-101.81 265-238.5 265S430 75.058 430 .5C430-74.058 498.31-84 635-84S931 38.942 931 113.5Z"/></g><g filter="url(#e)"><path fill="#1EF5FF" d="M1247 84c0 87.813-212.49 384-305 384-92.508 0-104-357.687-104-445.5 0-87.813 74.992-159 167.5-159C1098.01-136.5 1247-3.813 1247 84Z"/></g><g filter="url(#f)"><path fill="#EB00FF" d="M600 322c0 170.656-24.649 409.5-115.5 409.5-91 62.5-271-46.5-302-527 0-170.656 7.149-328 98-328S600 151.344 600 322Z"/></g><g filter="url(#g)"><path fill="orange" d="M444.5 712.5C679.231 774 214.687 871 115 871c-99.687 0-236.5-191.464-236.5-260.5s23.813-205 123.5-205 400.904 296.102 442.5 307Z"/></g><g filter="url(#h)"><path fill="#4611F5" d="M269.5 308c0 156.297 40.957 266-69.5 266S-83.5 338.297-83.5 182-20.457-89.5 90-89.5 269.5 151.703 269.5 308Z"/></g><g filter="url(#i)"><path fill="#EB00FF" d="M1257 255.5c0 49.429-45.67 261-102 261s-182.5-160.571-182.5-210S1098.67 166 1155 166s102 40.071 102 89.5Z"/></g><g filter="url(#j)"><path fill="#4611F5" d="M1309 668c0 95.545-109.24 173-244 173-134.757 0-301-169.455-301-265 0-95.545 166.243-168.5 301-168.5 134.76 0 244 164.955 244 260.5Z"/></g><g filter="url(#k)"><path fill="#fff" fill-opacity=".75" d="M0 0h1200v800H0z"/></g></g><defs><filter id="b" width="996.5" height="926" x="212.5" y="-35" color-interpolation-filters="sRGB" filterUnits="userSpaceOnUse"><feFlood flood-opacity="0" result="BackgroundImageFix"/><feBlend in="SourceGraphic" in2="BackgroundImageFix" result="shape"/><feGaussianBlur result="effect1_foregroundBlur_85_2" stdDeviation="125"/></filter><filter id="c" width="995" height="870.5" x="202.5" y="311" color-interpolation-filters="sRGB" filterUnits="userSpaceOnUse"><feFlood flood-opacity="0" result="BackgroundImageFix"/><feBlend in="SourceGraphic" in2="BackgroundImageFix" result="shape"/><feGaussianBlur result="effect1_foregroundBlur_85_2" stdDeviation="125"/></filter><filter id="d" width="1001" height="962.5" x="180" y="-334" color-interpolation-filters="sRGB" filterUnits="userSpaceOnUse"><feFlood flood-opacity="0" result="BackgroundImageFix"/><feBlend in="SourceGraphic" in2="BackgroundImageFix" result="shape"/><feGaussianBlur result="effect1_foregroundBlur_85_2" stdDeviation="125"/></filter><filter id="e" width="909" height="1104.5" x="588" y="-386.5" color-interpolation-filters="sRGB" filterUnits="userSpaceOnUse"><feFlood flood-opacity="0" result="BackgroundImageFix"/><feBlend in="SourceGraphic" in2="BackgroundImageFix" result="shape"/><feGaussianBlur result="effect1_foregroundBlur_85_2" stdDeviation="125"/></filter><filter id="f" width="917.5" height="1371.03" x="-67.5" y="-373.5" color-interpolation-filters="sRGB" filterUnits="userSpaceOnUse"><feFlood flood-opacity="0" result="BackgroundImageFix"/><feBlend in="SourceGraphic" in2="BackgroundImageFix" result="shape"/><feGaussianBlur result="effect1_foregroundBlur_85_2" stdDeviation="125"/></filter><filter id="g" width="1131.45" height="965.5" x="-371.5" y="155.5" color-interpolation-filters="sRGB" filterUnits="userSpaceOnUse"><feFlood flood-opacity="0" result="BackgroundImageFix"/><feBlend in="SourceGraphic" in2="BackgroundImageFix" result="shape"/><feGaussianBlur result="effect1_foregroundBlur_85_2" stdDeviation="125"/></filter><filter id="h" width="860.426" height="1163.5" x="-333.5" y="-339.5" color-interpolation-filters="sRGB" filterUnits="userSpaceOnUse"><feFlood flood-opacity="0" result="BackgroundImageFix"/><feBlend in="SourceGraphic" in2="BackgroundImageFix" result="shape"/><feGaussianBlur result="effect1_foregroundBlur_85_2" stdDeviation="125"/></filter><filter id="i" width="784.5" height="850.5" x="722.5" y="-84" color-interpolation-filters="sRGB" filterUnits="userSpaceOnUse"><feFlood flood-opacity="0" result="BackgroundImageFix"/><feBlend in="SourceGraphic" in2="BackgroundImageFix" result="shape"/><feGaussianBlur result="effect1_foregroundBlur_85_2" stdDeviation="125"/></filter><filter id="j" width="1045" height="933.5" x="514" y="157.5" color-interpolation-filters="sRGB" filterUnits="userSpaceOnUse"><feFlood flood-opacity="0" result="BackgroundImageFix"/><feBlend in="SourceGraphic" in2="BackgroundImageFix" result="shape"/><feGaussianBlur result="effect1_foregroundBlur_85_2" stdDeviation="125"/></filter><filter id="k" width="1600" height="1200" x="-200" y="-200" color-interpolation-filters="sRGB" filterUnits="userSpaceOnUse"><feFlood flood-opacity="0" result="BackgroundImageFix"/><feBlend in="SourceGraphic" in2="BackgroundImageFix" result="shape"/><feGaussianBlur result="effect1_foregroundBlur_85_2" stdDeviation="100"/></filter><clipPath id="a"><path fill="#fff" d="M0 0h1200v800H0z"/></clipPath></defs></svg>