<svg xmlns="http://www.w3.org/2000/svg" width="1200" height="800" fill="none"><g clip-path="url(#a)"><path fill="#F8FAFC" d="M0 0h1200v800H0z"/><g filter="url(#b)"><path fill="url(#c)" d="M510 274c0 82.843-153.157 162.5-236 162.5-82.843 0-151-93.157-151-176S262.657 116 345.5 116c82.843 0 164.5 75.157 164.5 158Z"/></g><g filter="url(#d)"><path fill="url(#e)" d="M171.468 742.158c-76.23-32.431-43.751-164.957-11.32-241.188 32.431-76.23 55.269-61.431 131.5-29s79.431 86.769 47 163-90.949 139.619-167.18 107.188Z"/></g><g filter="url(#f)"><path fill="url(#g)" d="M1036 747c-50.359 65.78-157.148 53.319-215.5-17-65.78-50.358-66.21-104.54-15.852-170.32 50.358-65.779 129.98-30.837 195.762 19.521C1066.19 629.559 1086.36 681.22 1036 747Z"/></g><g filter="url(#h)"><path fill="url(#i)" d="M748.221 430.69c-5.058 82.688-67.927 82.154-150.615 77.096-82.689-5.058-119.577-7.794-114.519-90.482 5.058-82.688 90.624-98.147 173.313-93.089 82.688 5.058 96.879 23.787 91.821 106.475Z"/></g><g filter="url(#j)"><path fill="url(#k)" d="M1094 337.224C1094 429.218 1023.34 531 940.5 531 857.657 531 794 429.218 794 337.224 794 245.23 918.657 149 1001.5 149c82.84 0 92.5 96.23 92.5 188.224Z"/></g><g filter="url(#l)"><path fill="url(#m)" d="M808.5 635.5c0 82.843-273.157 115.5-356 115.5-82.843 0-121-95.657-121-178.5s129.657-95 212.5-95c82.843 0 264.5 75.157 264.5 158Z"/></g><g filter="url(#n)"><path fill="url(#o)" d="M609.503 398.283C527.563 386.091 480.807 167.941 493 86c12.192-81.94 186.559-73.693 268.5-61.5 81.94 12.193 237.692-51.94 225.5 30-12.193 81.94-295.556 355.976-377.497 343.783Z"/></g><path fill="#fff" fill-opacity=".8" d="M0 0h1200v800H0z"/></g><defs><linearGradient id="c" x1="144" x2="444" y1="108.768" y2="361.231" gradientUnits="userSpaceOnUse"><stop stop-color="#4611F5"/><stop offset=".505" stop-color="#EB00FF" stop-opacity=".4"/><stop offset="1" stop-color="orange"/></linearGradient><linearGradient id="e" x1="466.792" x2="117.036" y1="470.053" y2="647.277" gradientUnits="userSpaceOnUse"><stop stop-color="#4611F5"/><stop offset=".505" stop-color="#EB00FF" stop-opacity=".4"/><stop offset="1" stop-color="orange"/></linearGradient><linearGradient id="g" x1="872.51" x2="957.254" y1="390.593" y2="773.419" gradientUnits="userSpaceOnUse"><stop stop-color="#4611F5"/><stop offset=".505" stop-color="#EB00FF" stop-opacity=".4"/><stop offset="1" stop-color="orange"/></linearGradient><linearGradient id="i" x1="458.114" x2="742.14" y1="258.631" y2="528.94" gradientUnits="userSpaceOnUse"><stop stop-color="#4611F5"/><stop offset=".505" stop-color="#EB00FF" stop-opacity=".4"/><stop offset="1" stop-color="orange"/></linearGradient><linearGradient id="k" x1="839.381" x2="1079.11" y1="503.794" y2="194.269" gradientUnits="userSpaceOnUse"><stop stop-color="#4611F5"/><stop offset=".505" stop-color="#EB00FF" stop-opacity=".4"/><stop offset="1" stop-color="orange"/></linearGradient><linearGradient id="m" x1="394" x2="694" y1="450.769" y2="703.232" gradientUnits="userSpaceOnUse"><stop stop-color="#4611F5"/><stop offset=".505" stop-color="#EB00FF" stop-opacity=".4"/><stop offset="1" stop-color="orange"/></linearGradient><linearGradient id="o" x1="853.228" x2="559.361" y1="15.485" y2="275.061" gradientUnits="userSpaceOnUse"><stop stop-color="#4611F5"/><stop offset=".505" stop-color="#EB00FF" stop-opacity=".4"/><stop offset="1" stop-color="orange"/></linearGradient><filter id="b" width="587" height="520.5" x="23" y="16" color-interpolation-filters="sRGB" filterUnits="userSpaceOnUse"><feFlood flood-opacity="0" result="BackgroundImageFix"/><feBlend in="SourceGraphic" in2="BackgroundImageFix" result="shape"/><feGaussianBlur result="effect1_foregroundBlur_82_91" stdDeviation="50"/></filter><filter id="d" width="433.446" height="505.299" x="24.686" y="345.545" color-interpolation-filters="sRGB" filterUnits="userSpaceOnUse"><feFlood flood-opacity="0" result="BackgroundImageFix"/><feBlend in="SourceGraphic" in2="BackgroundImageFix" result="shape"/><feGaussianBlur result="effect1_foregroundBlur_82_91" stdDeviation="50"/></filter><filter id="f" width="495.416" height="466.515" x="668.808" y="423.617" color-interpolation-filters="sRGB" filterUnits="userSpaceOnUse"><feFlood flood-opacity="0" result="BackgroundImageFix"/><feBlend in="SourceGraphic" in2="BackgroundImageFix" result="shape"/><feGaussianBlur result="effect1_foregroundBlur_82_91" stdDeviation="50"/></filter><filter id="h" width="466.497" height="386.295" x="382.63" y="223.353" color-interpolation-filters="sRGB" filterUnits="userSpaceOnUse"><feFlood flood-opacity="0" result="BackgroundImageFix"/><feBlend in="SourceGraphic" in2="BackgroundImageFix" result="shape"/><feGaussianBlur result="effect1_foregroundBlur_82_91" stdDeviation="50"/></filter><filter id="j" width="500" height="582" x="694" y="49" color-interpolation-filters="sRGB" filterUnits="userSpaceOnUse"><feFlood flood-opacity="0" result="BackgroundImageFix"/><feBlend in="SourceGraphic" in2="BackgroundImageFix" result="shape"/><feGaussianBlur result="effect1_foregroundBlur_82_91" stdDeviation="50"/></filter><filter id="l" width="677" height="473.5" x="231.5" y="377.5" color-interpolation-filters="sRGB" filterUnits="userSpaceOnUse"><feFlood flood-opacity="0" result="BackgroundImageFix"/><feBlend in="SourceGraphic" in2="BackgroundImageFix" result="shape"/><feGaussianBlur result="effect1_foregroundBlur_82_91" stdDeviation="50"/></filter><filter id="n" width="696.595" height="586.63" x="391.081" y="-87.953" color-interpolation-filters="sRGB" filterUnits="userSpaceOnUse"><feFlood flood-opacity="0" result="BackgroundImageFix"/><feBlend in="SourceGraphic" in2="BackgroundImageFix" result="shape"/><feGaussianBlur result="effect1_foregroundBlur_82_91" stdDeviation="50"/></filter><clipPath id="a"><path fill="#fff" d="M0 0h1200v800H0z"/></clipPath></defs></svg>