<svg xmlns="http://www.w3.org/2000/svg" viewBox="0 0 256 256" focusable="false" color="var(--token-c3b9c1a0-bcdf-42e3-9e31-69358466738e, rgb(70, 17, 245))" style="user-select: none; width: 100%; height: 100%; display: inline-block; fill: var(--token-c3b9c1a0-bcdf-42e3-9e31-69358466738e, rgb(70, 17, 245)); color: var(--token-c3b9c1a0-bcdf-42e3-9e31-69358466738e, rgb(70, 17, 245)); flex-shrink: 0;"><g color="var(--token-c3b9c1a0-bcdf-42e3-9e31-69358466738e, rgb(70, 17, 245))" weight="light"><path d="M224,50H32a6,6,0,0,0-6,6V192a14,14,0,0,0,14,14H216a14,14,0,0,0,14-14V56A6,6,0,0,0,224,50ZM208.58,62,128,135.86,47.42,62ZM216,194H40a2,2,0,0,1-2-2V69.64l86,78.78a6,6,0,0,0,8.1,0L218,69.64V192A2,2,0,0,1,216,194Z"></path></g></svg>

