<svg xmlns="http://www.w3.org/2000/svg" viewBox="0 0 256 256" focusable="false" color="var(--token-c3b9c1a0-bcdf-42e3-9e31-69358466738e, rgb(70, 17, 245))" style="user-select: none; width: 100%; height: 100%; display: inline-block; fill: var(--token-c3b9c1a0-bcdf-42e3-9e31-69358466738e, rgb(70, 17, 245)); color: var(--token-c3b9c1a0-bcdf-42e3-9e31-69358466738e, rgb(70, 17, 245)); flex-shrink: 0;"><g color="var(--token-c3b9c1a0-bcdf-42e3-9e31-69358466738e, rgb(70, 17, 245))" weight="light"><path d="M208,34H182V24a6,6,0,0,0-12,0V34H86V24a6,6,0,0,0-12,0V34H48A14,14,0,0,0,34,48V208a14,14,0,0,0,14,14H208a14,14,0,0,0,14-14V48A14,14,0,0,0,208,34ZM48,46H74V56a6,6,0,0,0,12,0V46h84V56a6,6,0,0,0,12,0V46h26a2,2,0,0,1,2,2V82H46V48A2,2,0,0,1,48,46ZM208,210H48a2,2,0,0,1-2-2V94H210V208A2,2,0,0,1,208,210Zm-70-78a10,10,0,1,1-10-10A10,10,0,0,1,138,132Zm44,0a10,10,0,1,1-10-10A10,10,0,0,1,182,132ZM94,172a10,10,0,1,1-10-10A10,10,0,0,1,94,172Zm44,0a10,10,0,1,1-10-10A10,10,0,0,1,138,172Zm44,0a10,10,0,1,1-10-10A10,10,0,0,1,182,172Z"></path></g></svg>

