<svg xmlns="http://www.w3.org/2000/svg" viewBox="0 0 256 256" focusable="false" color="var(--token-c3b9c1a0-bcdf-42e3-9e31-69358466738e, rgb(70, 17, 245))" style="user-select: none; width: 100%; height: 100%; display: inline-block; fill: var(--token-c3b9c1a0-bcdf-42e3-9e31-69358466738e, rgb(70, 17, 245)); color: var(--token-c3b9c1a0-bcdf-42e3-9e31-69358466738e, rgb(70, 17, 245)); flex-shrink: 0;"><g color="var(--token-c3b9c1a0-bcdf-42e3-9e31-69358466738e, rgb(70, 17, 245))" weight="light"><path d="M217.9,110.1l-80-80a14,14,0,0,0-19.8,0l-80,80A13.92,13.92,0,0,0,34,120v96a6,6,0,0,0,6,6h64a6,6,0,0,0,6-6V158h36v58a6,6,0,0,0,6,6h64a6,6,0,0,0,6-6V120A13.92,13.92,0,0,0,217.9,110.1ZM210,210H158V152a6,6,0,0,0-6-6H104a6,6,0,0,0-6,6v58H46V120a2,2,0,0,1,.58-1.42l80-80a2,2,0,0,1,2.84,0l80,80A2,2,0,0,1,210,120Z"></path></g></svg>

