<svg xmlns="http://www.w3.org/2000/svg" viewBox="0 0 256 256" focusable="false" color="var(--token-eb8c55ba-37a9-4a2d-935d-5f0ec2080647, rgb(255, 255, 255))" style="user-select: none; width: 100%; height: 100%; display: inline-block; fill: var(--token-eb8c55ba-37a9-4a2d-935d-5f0ec2080647, rgb(255, 255, 255)); color: var(--token-eb8c55ba-37a9-4a2d-935d-5f0ec2080647, rgb(255, 255, 255)); flex-shrink: 0;"><g color="var(--token-eb8c55ba-37a9-4a2d-935d-5f0ec2080647, rgb(255, 255, 255))" weight="fill"><path d="M213.66,66.34l-40-40A8,8,0,0,0,168,24H88A16,16,0,0,0,72,40V56H56A16,16,0,0,0,40,72V216a16,16,0,0,0,16,16H168a16,16,0,0,0,16-16V200h16a16,16,0,0,0,16-16V72A8,8,0,0,0,213.66,66.34ZM136,192H88a8,8,0,0,1,0-16h48a8,8,0,0,1,0,16Zm0-32H88a8,8,0,0,1,0-16h48a8,8,0,0,1,0,16Zm64,24H184V104a8,8,0,0,0-2.34-5.66l-40-40A8,8,0,0,0,136,56H88V40h76.69L200,75.31Z"></path></g></svg>