<svg xmlns="http://www.w3.org/2000/svg" viewBox="0 0 256 256" focusable="false" color="var(--token-eb8c55ba-37a9-4a2d-935d-5f0ec2080647, rgb(255, 255, 255))" style="user-select: none; width: 100%; height: 100%; display: inline-block; fill: var(--token-eb8c55ba-37a9-4a2d-935d-5f0ec2080647, rgb(255, 255, 255)); color: var(--token-eb8c55ba-37a9-4a2d-935d-5f0ec2080647, rgb(255, 255, 255)); flex-shrink: 0;"><g color="var(--token-eb8c55ba-37a9-4a2d-935d-5f0ec2080647, rgb(255, 255, 255))" weight="fill"><path d="M239,188.08,173.68,72h58A8.17,8.17,0,0,0,240,64.53,8,8,0,0,0,232,56H24.27A8.17,8.17,0,0,0,16,63.47,8,8,0,0,0,24,72H82.32L17,188.08a8,8,0,0,0,1.17,9.43,8.24,8.24,0,0,0,6,2.49H116a4,4,0,0,0,4-4V176.27a8.17,8.17,0,0,1,7.47-8.25,8,8,0,0,1,8.53,8v20a4,4,0,0,0,4,4h91.77a8.24,8.24,0,0,0,6-2.49A8,8,0,0,0,239,188.08ZM136,140a8,8,0,0,1-16,0V124a8,8,0,0,1,16,0Zm0-52a8,8,0,0,1-16,0V80a8,8,0,0,1,16,0Z"></path></g></svg>