<svg xmlns="http://www.w3.org/2000/svg" viewBox="0 0 256 256" focusable="false" color="var(--token-c3b9c1a0-bcdf-42e3-9e31-69358466738e, rgb(70, 17, 245))" style="user-select: none; width: 100%; height: 100%; display: inline-block; fill: var(--token-c3b9c1a0-bcdf-42e3-9e31-69358466738e, rgb(70, 17, 245)); color: var(--token-c3b9c1a0-bcdf-42e3-9e31-69358466738e, rgb(70, 17, 245)); flex-shrink: 0;"><g color="var(--token-c3b9c1a0-bcdf-42e3-9e31-69358466738e, rgb(70, 17, 245))" weight="fill"><path d="M240,112H211.31L168,68.69A15.86,15.86,0,0,0,156.69,64H44.28A16,16,0,0,0,31,71.12L1.34,115.56A8.07,8.07,0,0,0,0,120v48a16,16,0,0,0,16,16H33a32,32,0,0,0,62,0h66a32,32,0,0,0,62,0h17a16,16,0,0,0,16-16V128A16,16,0,0,0,240,112ZM44.28,80H156.69l32,32H23ZM64,192a16,16,0,1,1,16-16A16,16,0,0,1,64,192Zm128,0a16,16,0,1,1,16-16A16,16,0,0,1,192,192Z"></path></g></svg>