<svg xmlns="http://www.w3.org/2000/svg" viewBox="0 0 256 256" focusable="false" color="var(--token-992af2c7-ec5c-4d38-a399-51876ab56652, rgb(26, 32, 44))" style="user-select: none; width: 100%; height: 100%; display: inline-block; fill: var(--token-992af2c7-ec5c-4d38-a399-51876ab56652, rgb(26, 32, 44)); color: var(--token-992af2c7-ec5c-4d38-a399-51876ab56652, rgb(26, 32, 44)); flex-shrink: 0;"><g color="var(--token-992af2c7-ec5c-4d38-a399-51876ab56652, rgb(26, 32, 44))" weight="regular"><path d="M216,32H88a8,8,0,0,0-8,8V80H40a8,8,0,0,0-8,8V216a8,8,0,0,0,8,8H168a8,8,0,0,0,8-8V176h40a8,8,0,0,0,8-8V40A8,8,0,0,0,216,32ZM160,208H48V96H160Zm48-48H176V88a8,8,0,0,0-8-8H96V48H208Z"></path></g></svg>