<svg xmlns="http://www.w3.org/2000/svg" viewBox="0 0 256 256" focusable="false" color="var(--token-c3b9c1a0-bcdf-42e3-9e31-69358466738e, rgb(70, 17, 245))" style="user-select: none; width: 100%; height: 100%; display: inline-block; fill: var(--token-c3b9c1a0-bcdf-42e3-9e31-69358466738e, rgb(70, 17, 245)); color: var(--token-c3b9c1a0-bcdf-42e3-9e31-69358466738e, rgb(70, 17, 245)); flex-shrink: 0;"><g color="var(--token-c3b9c1a0-bcdf-42e3-9e31-69358466738e, rgb(70, 17, 245))" weight="fill"><path d="M128,24A104,104,0,1,0,232,128,104.11,104.11,0,0,0,128,24ZM49.63,168H90.45l17,45.58A88.35,88.35,0,0,1,49.63,168ZM128,156a16,16,0,1,1,16-16A16,16,0,0,1,128,156Zm20.46,57.59L165.55,168h40.82A88.34,88.34,0,0,1,148.46,213.59ZM128,96a136.38,136.38,0,0,0-88,32.33V128a88,88,0,0,1,176,0v.33A136.38,136.38,0,0,0,128,96Z"></path></g></svg>