<svg
  xmlns="http://www.w3.org/2000/svg"
  viewBox="0 0 256 256"
  focusable="false"
  color="var(--token-c3b9c1a0-bcdf-42e3-9e31-69358466738e, rgb(70, 17, 245))"
  style="
    user-select: none;
    width: 100%;
    height: 100%;
    display: inline-block;
    fill: var(--token-c3b9c1a0-bcdf-42e3-9e31-69358466738e, rgb(70, 17, 245));
    color: var(--token-c3b9c1a0-bcdf-42e3-9e31-69358466738e, rgb(70, 17, 245));
    flex-shrink: 0;
  "
>
  <g
    color="var(--token-c3b9c1a0-bcdf-42e3-9e31-69358466738e, rgb(70, 17, 245))"
    weight="fill"
  >
    <path
      d="M224,120v96a8,8,0,0,1-8,8H160a8,8,0,0,1-8-8V164a4,4,0,0,0-4-4H108a4,4,0,0,0-4,4v52a8,8,0,0,1-8,8H40a8,8,0,0,1-8-8V120a16,16,0,0,1,4.69-11.31l80-80a16,16,0,0,1,22.62,0l80,80A16,16,0,0,1,224,120Z"
    ></path>
  </g>
</svg>
