<svg xmlns="http://www.w3.org/2000/svg" viewBox="0 0 256 256" focusable="false" color="var(--token-1d6b3bc2-09cd-4ad4-9b2c-36a4aeed34f1, rgb(0, 0, 0))" style="user-select: none; width: 100%; height: 100%; display: inline-block; fill: var(--token-1d6b3bc2-09cd-4ad4-9b2c-36a4aeed34f1, rgb(0, 0, 0)); color: var(--token-1d6b3bc2-09cd-4ad4-9b2c-36a4aeed34f1, rgb(0, 0, 0)); flex-shrink: 0;"><g color="var(--token-1d6b3bc2-09cd-4ad4-9b2c-36a4aeed34f1, rgb(0, 0, 0))" weight="regular"><path d="M224,104a8,8,0,0,1-16,0V59.32l-66.33,66.34a8,8,0,0,1-11.32-11.32L196.68,48H152a8,8,0,0,1,0-16h64a8,8,0,0,1,8,8Zm-40,24a8,8,0,0,0-8,8v72H48V80h72a8,8,0,0,0,0-16H48A16,16,0,0,0,32,80V208a16,16,0,0,0,16,16H176a16,16,0,0,0,16-16V136A8,8,0,0,0,184,128Z"></path></g></svg>