<svg xmlns="http://www.w3.org/2000/svg" viewBox="0 0 256 256" focusable="false" color="var(--token-1d6b3bc2-09cd-4ad4-9b2c-36a4aeed34f1, rgb(0, 0, 0))" style="user-select: none; width: 100%; height: 100%; display: inline-block; fill: var(--token-1d6b3bc2-09cd-4ad4-9b2c-36a4aeed34f1, rgb(0, 0, 0)); color: var(--token-1d6b3bc2-09cd-4ad4-9b2c-36a4aeed34f1, rgb(0, 0, 0)); flex-shrink: 0;"><g color="var(--token-1d6b3bc2-09cd-4ad4-9b2c-36a4aeed34f1, rgb(0, 0, 0))" weight="regular"><path d="M120,216a8,8,0,0,1-8,8H48a8,8,0,0,1-8-8V40a8,8,0,0,1,8-8h64a8,8,0,0,1,0,16H56V208h56A8,8,0,0,1,120,216Zm109.66-93.66-40-40a8,8,0,0,0-11.32,11.32L204.69,120H112a8,8,0,0,0,0,16h92.69l-26.35,26.34a8,8,0,0,0,11.32,11.32l40-40A8,8,0,0,0,229.66,122.34Z"></path></g></svg>