<svg xmlns="http://www.w3.org/2000/svg" viewBox="0 0 256 256" focusable="false" color="var(--token-1d6b3bc2-09cd-4ad4-9b2c-36a4aeed34f1, rgb(0, 0, 0))" style="user-select: none; width: 100%; height: 100%; display: inline-block; fill: var(--token-1d6b3bc2-09cd-4ad4-9b2c-36a4aeed34f1, rgb(0, 0, 0)); color: var(--token-1d6b3bc2-09cd-4ad4-9b2c-36a4aeed34f1, rgb(0, 0, 0)); flex-shrink: 0;"><g color="var(--token-1d6b3bc2-09cd-4ad4-9b2c-36a4aeed34f1, rgb(0, 0, 0))" weight="regular"><path d="M224,128a8,8,0,0,1-8,8H40a8,8,0,0,1,0-16H216A8,8,0,0,1,224,128ZM40,72H216a8,8,0,0,0,0-16H40a8,8,0,0,0,0,16ZM216,184H40a8,8,0,0,0,0,16H216a8,8,0,0,0,0-16Z"></path></g></svg>