<svg xmlns="http://www.w3.org/2000/svg" viewBox="0 0 256 256" focusable="false" color="rgb(45, 55, 72)" style="user-select: none; width: 100%; height: 100%; display: inline-block; fill: rgb(45, 55, 72); color: rgb(45, 55, 72); flex-shrink: 0;"><g color="rgb(45, 55, 72)" weight="regular"><path d="M227.31,73.37,182.63,28.68a16,16,0,0,0-22.63,0L36.69,152A15.86,15.86,0,0,0,32,163.31V208a16,16,0,0,0,16,16H92.69A15.86,15.86,0,0,0,104,219.31L227.31,96a16,16,0,0,0,0-22.63ZM92.69,208H48V163.31l88-88L180.69,120ZM192,108.68,147.31,64l24-24L216,84.68Z"></path></g></svg>