<?xml version="1.0" encoding="utf-8"?>
<!-- Generator: Adobe Illustrator 28.4.1, SVG Export Plug-In . SVG Version: 6.00 Build 0)  -->
<svg version="1.1" id="Layer_1" xmlns="http://www.w3.org/2000/svg" xmlns:xlink="http://www.w3.org/1999/xlink" x="0px" y="0px"
	 viewBox="0 0 142.8 142.7" style="enable-background:new 0 0 142.8 142.7;" xml:space="preserve">
<style type="text/css">
	.st0{fill:url(#SVGID_1_);}
	.st1{fill:url(#SVGID_00000040570723397874815990000008458965441297594251_);}
	.st2{fill:url(#SVGID_00000170978675973002418360000005853708250884823742_);}
</style>
<g>
	
		<linearGradient id="SVGID_1_" gradientUnits="userSpaceOnUse" x1="15.638" y1="-67.5565" x2="155.8547" y2="50.1922" gradientTransform="matrix(1 0 0 -1 0 50.5936)">
		<stop  offset="0" style="stop-color:#4611F5"/>
		<stop  offset="1" style="stop-color:#EB00FF"/>
	</linearGradient>
	<path class="st0" d="M71.4,142.7c-10.2,0-20-2.1-29.2-6.2c-1.7-0.7-2.4-2.7-1.6-4.3c0.7-1.7,2.7-2.4,4.3-1.6
		c8.3,3.8,17.3,5.7,26.5,5.7c35.7,0,64.8-29.1,64.8-64.8S107.1,6.7,71.4,6.7S6.6,35.8,6.6,71.5c0,12.6,3.6,24.7,10.4,35.2
		c1,1.5,0.6,3.5-1,4.5c-1.5,1-3.5,0.6-4.5-1C4,98.6,0,85.2,0,71.4C0,32,32,0,71.4,0s71.4,32,71.4,71.4
		C142.7,110.7,110.7,142.7,71.4,142.7z"/>
	
		<linearGradient id="SVGID_00000142155467824671724080000008501705490874470334_" gradientUnits="userSpaceOnUse" x1="6.4225" y1="-56.5827" x2="146.6392" y2="61.1661" gradientTransform="matrix(1 0 0 -1 0 50.5936)">
		<stop  offset="0" style="stop-color:#4611F5"/>
		<stop  offset="1" style="stop-color:#EB00FF"/>
	</linearGradient>
	<path style="fill:url(#SVGID_00000142155467824671724080000008501705490874470334_);" d="M73.8,34.8c-19.7,0.7-35.7,15.5-38.3,34.7
		c6.2-4.6,13.9-7.5,22.1-7.8c0.2,0,0.4,0,0.6,0c0.3,0,0.7,0,1,0h33.4l8.8-17.1l5-9.7H73.8V34.8z"/>
	
		<linearGradient id="SVGID_00000065041565694941272010000013521200039717408402_" gradientUnits="userSpaceOnUse" x1="22.4067" y1="-75.6168" x2="162.6234" y2="42.132" gradientTransform="matrix(1 0 0 -1 0 50.5936)">
		<stop  offset="0" style="stop-color:#4611F5"/>
		<stop  offset="1" style="stop-color:#EB00FF"/>
	</linearGradient>
	<path style="fill:url(#SVGID_00000065041565694941272010000013521200039717408402_);" d="M40,91.6l-1.2,2.2l0,0l-14.3,27.7l-7,13.5
		h6.3l4.2-8.3l4.7-9.3c3.4-6.7,10.2-10.9,17.7-10.9h21.7l13.8-26.8H59.6C51.4,79.7,43.8,84.3,40,91.6z"/>
</g>
</svg>
