<?xml version="1.0" encoding="utf-8"?>
<!-- Generator: Adobe Illustrator 28.4.1, SVG Export Plug-In . SVG Version: 6.00 Build 0)  -->
<svg version="1.1" id="Layer_1" xmlns="http://www.w3.org/2000/svg" xmlns:xlink="http://www.w3.org/1999/xlink" x="0px" y="0px"
	 viewBox="0 0 467.4 142.7" style="enable-background:new 0 0 467.4 142.7;" xml:space="preserve">
<style type="text/css">
	.st0{fill:url(#SVGID_1_);}
	.st1{fill:url(#SVGID_00000134239244260625750270000009754850702597058183_);}
	.st2{fill:url(#SVGID_00000143605548552985654520000004616328197229651386_);}
</style>
<g>
	<g>
		
			<linearGradient id="SVGID_1_" gradientUnits="userSpaceOnUse" x1="15.7168" y1="24.4785" x2="155.9335" y2="142.2273" gradientTransform="matrix(1 0 0 -1 0 142.5936)">
			<stop  offset="0" style="stop-color:#4611F5"/>
			<stop  offset="1" style="stop-color:#EB00FF"/>
		</linearGradient>
		<path class="st0" d="M71.4,142.7c-10.2,0-20-2.1-29.2-6.2c-1.7-0.7-2.4-2.7-1.6-4.3c0.7-1.7,2.7-2.4,4.3-1.6
			c8.3,3.8,17.3,5.7,26.5,5.7c35.7,0,64.8-29.1,64.8-64.8S107.1,6.7,71.4,6.7S6.6,35.8,6.6,71.5c0,12.6,3.6,24.7,10.4,35.2
			c1,1.5,0.6,3.5-1,4.5c-1.5,1-3.5,0.6-4.5-1C4,98.6,0,85.2,0,71.4C0,32,32,0,71.4,0s71.4,32,71.4,71.4
			C142.8,110.7,110.8,142.7,71.4,142.7z"/>
		
			<linearGradient id="SVGID_00000070825688723376784160000013512602271392735153_" gradientUnits="userSpaceOnUse" x1="6.5273" y1="35.4214" x2="146.744" y2="153.1702" gradientTransform="matrix(1 0 0 -1 0 142.5936)">
			<stop  offset="0" style="stop-color:#4611F5"/>
			<stop  offset="1" style="stop-color:#EB00FF"/>
		</linearGradient>
		<path style="fill:url(#SVGID_00000070825688723376784160000013512602271392735153_);" d="M73.9,34.8
			c-19.7,0.7-35.7,15.5-38.3,34.7c6.2-4.6,13.9-7.5,22.1-7.8c0.2,0,0.4,0,0.6,0c0.3,0,0.7,0,1,0h33.4l8.8-17.1l5-9.7H73.9V34.8z"/>
		
			<linearGradient id="SVGID_00000044178857632148027340000001260150109353653135_" gradientUnits="userSpaceOnUse" x1="22.4894" y1="16.4136" x2="162.7061" y2="134.1624" gradientTransform="matrix(1 0 0 -1 0 142.5936)">
			<stop  offset="0" style="stop-color:#4611F5"/>
			<stop  offset="1" style="stop-color:#EB00FF"/>
		</linearGradient>
		<path style="fill:url(#SVGID_00000044178857632148027340000001260150109353653135_);" d="M40.1,91.6l-1.2,2.2l0,0l-14.3,27.7
			l-7,13.5h6.3l4.2-8.3l4.7-9.3c3.4-6.7,10.2-10.9,17.7-10.9h21.7L86,79.7H59.7C51.4,79.6,43.9,84.2,40.1,91.6z"/>
	</g>
	<g>
		<g>
			<path d="M175.3,59.9v4.9h11.1v-4.7c0-6.5,5.3-11.7,11.7-11.7h32.7V37.3h-32.9C185.4,37.3,175.3,47.4,175.3,59.9z"/>
			<path d="M175.3,89.5v19.6h11.1V89.5c0-6.4,5.2-11.7,11.7-11.7H220V66.7h-21.9C185.5,66.8,175.3,77,175.3,89.5z"/>
		</g>
		<path d="M274.5,87.7v-29h-11.1v7.4c-3.6-2.2-7.8-3.5-12.3-3.5c-12.9,0-23.3,10.5-23.3,23.3s10.5,23.3,23.3,23.3
			c6.9,0,13-3,17.3-7.7c3.9,4.7,9.9,7.7,16.5,7.7V98.1C279.1,98.1,274.5,93.5,274.5,87.7z M251.1,98.1c-6.8,0-12.3-5.5-12.3-12.3
			s5.5-12.3,12.3-12.3c6.8,0,12.3,5.5,12.3,12.3S257.9,98.1,251.1,98.1z"/>
		<path d="M364.8,109.2h-11.1V79.7c0-11.9,9.6-21.5,21.5-21.5v11.1c-5.7,0-10.4,4.7-10.4,10.4V109.2z"/>
		<path d="M407.8,109.2c-11.9,0-21.5-9.6-21.5-21.5V37.2h11.1v50.5c0,5.7,4.7,10.4,10.4,10.4V109.2z"/>
		<path d="M319.3,59.7c-4.5,0-8.7,1.4-12.3,3.7v-26h-11.1v46.8v25H307v-25c0-7.4,5.5-13.4,12.3-13.4s12.3,6,12.3,13.4v25h11.1v-25
			C342.6,70.7,332.1,59.7,319.3,59.7z"/>
		<g>
			<path d="M467.4,58.2l-23.5,68c-3.4,9.9-12.7,16.5-23.1,16.5v-11.1c5.7,0,10.8-3.6,12.6-9l22.2-64.4H467.4z"/>
			<polygon points="438,109.2 426.3,109.2 408.7,58.2 420.4,58.2 			"/>
		</g>
	</g>
</g>
</svg>
