<svg xmlns="http://www.w3.org/2000/svg" viewBox="0 0 256 256" focusable="false" color="var(--token-c4c2a755-423d-4ff0-977a-c547eec706d7, rgb(37, 99, 235))" style="user-select: none; width: 100%; height: 100%; display: inline-block; fill: var(--token-c4c2a755-423d-4ff0-977a-c547eec706d7, rgb(37, 99, 235)); color: var(--token-c4c2a755-423d-4ff0-977a-c547eec706d7, rgb(37, 99, 235)); flex-shrink: 0;"><g color="var(--token-c4c2a755-423d-4ff0-977a-c547eec706d7, rgb(37, 99, 235))" weight="regular"><path d="M117.25,157.92a60,60,0,1,0-66.5,0A95.83,95.83,0,0,0,3.53,195.63a8,8,0,1,0,13.4,8.74,80,80,0,0,1,134.14,0,8,8,0,0,0,13.4-8.74A95.83,95.83,0,0,0,117.25,157.92ZM40,108a44,44,0,1,1,44,44A44.05,44.05,0,0,1,40,108Zm210.14,98.7a8,8,0,0,1-11.07-2.33A79.83,79.83,0,0,0,172,168a8,8,0,0,1,0-16,44,44,0,1,0-16.34-84.87,8,8,0,1,1-5.94-14.85,60,60,0,0,1,55.53,105.64,95.83,95.83,0,0,1,47.22,37.71A8,8,0,0,1,250.14,206.7Z"></path></g></svg>