<svg xmlns="http://www.w3.org/2000/svg" viewBox="0 0 256 256" focusable="false" color="var(--token-c4c2a755-423d-4ff0-977a-c547eec706d7, rgb(37, 99, 235))" style="user-select: none; width: 100%; height: 100%; display: inline-block; fill: var(--token-c4c2a755-423d-4ff0-977a-c547eec706d7, rgb(37, 99, 235)); color: var(--token-c4c2a755-423d-4ff0-977a-c547eec706d7, rgb(37, 99, 235)); flex-shrink: 0;"><g color="var(--token-c4c2a755-423d-4ff0-977a-c547eec706d7, rgb(37, 99, 235))" weight="regular"><path d="M72,92A12,12,0,1,1,60,80,12,12,0,0,1,72,92Zm56-12a12,12,0,1,0,12,12A12,12,0,0,0,128,80Zm68,24a12,12,0,1,0-12-12A12,12,0,0,0,196,104ZM60,152a12,12,0,1,0,12,12A12,12,0,0,0,60,152Zm68,0a12,12,0,1,0,12,12A12,12,0,0,0,128,152Zm68,0a12,12,0,1,0,12,12A12,12,0,0,0,196,152Z"></path></g></svg>