<svg xmlns="http://www.w3.org/2000/svg" viewBox="0 0 256 256" focusable="false" color="var(--token-c4c2a755-423d-4ff0-977a-c547eec706d7, rgb(37, 99, 235))" style="user-select: none; width: 100%; height: 100%; display: inline-block; fill: var(--token-c4c2a755-423d-4ff0-977a-c547eec706d7, rgb(37, 99, 235)); color: var(--token-c4c2a755-423d-4ff0-977a-c547eec706d7, rgb(37, 99, 235)); flex-shrink: 0;"><g color="var(--token-c4c2a755-423d-4ff0-977a-c547eec706d7, rgb(37, 99, 235))" weight="regular"><path d="M128,72a8,8,0,0,1,8,8v56a8,8,0,0,1-16,0V80A8,8,0,0,1,128,72ZM116,172a12,12,0,1,0,12-12A12,12,0,0,0,116,172Zm124-44a15.85,15.85,0,0,1-4.67,11.28l-96.05,96.06a16,16,0,0,1-22.56,0h0l-96-96.06a16,16,0,0,1,0-22.56l96.05-96.06a16,16,0,0,1,22.56,0l96.05,96.06A15.85,15.85,0,0,1,240,128Zm-16,0L128,32,32,128,128,224h0Z"></path></g></svg>