<svg xmlns="http://www.w3.org/2000/svg" viewBox="0 0 256 256" focusable="false" color="var(--token-f761b878-b895-413f-93fc-f3d5785563bb, rgb(235, 0, 255))" style="user-select: none; width: 100%; height: 100%; display: inline-block; fill: var(--token-f761b878-b895-413f-93fc-f3d5785563bb, rgb(235, 0, 255)); color: var(--token-f761b878-b895-413f-93fc-f3d5785563bb, rgb(235, 0, 255)); flex-shrink: 0;"><g color="var(--token-f761b878-b895-413f-93fc-f3d5785563bb, rgb(235, 0, 255))" weight="fill"><path d="M232,224H208V32h8a8,8,0,0,0,0-16H40a8,8,0,0,0,0,16h8V224H24a8,8,0,0,0,0,16H232a8,8,0,0,0,0-16ZM88,56h24a8,8,0,0,1,0,16H88a8,8,0,0,1,0-16Zm0,40h24a8,8,0,0,1,0,16H88a8,8,0,0,1,0-16Zm-8,48a8,8,0,0,1,8-8h24a8,8,0,0,1,0,16H88A8,8,0,0,1,80,144Zm72,80H104V184h48Zm16-72H144a8,8,0,0,1,0-16h24a8,8,0,0,1,0,16Zm0-40H144a8,8,0,0,1,0-16h24a8,8,0,0,1,0,16Zm0-40H144a8,8,0,0,1,0-16h24a8,8,0,0,1,0,16Z"></path></g></svg>