<!-- Paste this into an HTML file or save as .svg -->
<svg xmlns="http://www.w3.org/2000/svg" viewBox="0 0 600 600" width="600" height="600" role="img" aria-label="Gradient ring logo">
  <defs>
    <!-- gradient used for both ring stroke and inner shapes -->
    <linearGradient id="g1" x1="0" y1="0" x2="1" y2="1">
      <stop offset="0%"  stop-color="#7a00ff"/>
      <stop offset="60%" stop-color="#9b18ff"/>
      <stop offset="100%" stop-color="#ff2aa6"/>
    </linearGradient>

    <!-- darker bluish gradient variant for a slightly deeper look -->
    <linearGradient id="g2" x1="0" y1="0" x2="1" y2="1">
      <stop offset="0%"  stop-color="#2a00ff"/>
      <stop offset="100%" stop-color="#8a26ff"/>
    </linearGradient>

    <!-- subtle drop shadow -->
    <filter id="shadow" x="-50%" y="-50%" width="200%" height="200%">
      <feDropShadow dx="4" dy="6" stdDeviation="8" flood-color="#000000" flood-opacity="0.18"/>
    </filter>
  </defs>

  <!-- transparent background if you paste into non-white pages -->
  <rect width="100%" height="100%" fill="transparent"/>

  <!-- MAIN ARC (big ring) - drawn as an arc path leaving a gap -->
  <!-- Start angle ~25deg -> end ~335deg around center 300,300 radius 240 -->
  <path
    d="M 517.5139 401.4284
       A 240 240 0 1 1 517.5139 198.5716"
    fill="none"
    stroke="url(#g1)"
    stroke-width="20"
    stroke-linecap="round"
    filter="url(#shadow)"
  />

  <!-- SMALL THICK ARC NEAR BOTTOM (the short thicker bottom piece) -->
  <!-- small arc from ~260deg to ~280deg -->
  <path
    d="M 258.3244 63.6461
       A 240 240 0 0 1 341.6756 63.6461"
    fill="none"
    stroke="url(#g1)"
    stroke-width="28"
    stroke-linecap="round"
    filter="url(#shadow)"
  />

  <!-- INNER SHAPES: two stylized 'leaf/flag' shapes forming the F -->
  <!-- Top leaf -->
  <path
    d="M 200 210
       C 260 140, 380 140, 440 140
       L 365 260
       C 315 260, 250 260, 200 260
       C 210 240, 200 230, 200 210 Z"
    fill="url(#g1)"
    filter="url(#shadow)"
    transform="translate(0,6)" opacity="0.98"
  />

  <!-- Lower leaf / diagonal leg -->
  <path
    d="M 170 350
       C 220 320, 300 320, 360 320
       L 300 420
       C 250 440, 200 470, 170 530
       L 200 530
       C 230 490, 260 370, 170 350 Z"
    fill="url(#g2)"
    filter="url(#shadow)"
    transform="translate(2,2)" opacity="0.98"
  />

  <!-- small accent shadow under the bottom leaf for depth (soft ellipse) -->
  <ellipse cx="300" cy="485" rx="80" ry="18" fill="#000" opacity="0.04" />

</svg>
